<svg width="181" height="53" viewBox="0 0 181 53" fill="none" xmlns="http://www.w3.org/2000/svg">
<g clip-path="url(#clip0_231_374)">
<rect width="181" height="53" rx="26.5" fill="#FE2E44"/>
<rect x="1.71361" y="1.6988" width="176.647" height="48.6741" rx="24.337" transform="matrix(1 0 0.00868076 0.999962 -0.0147468 6.38927e-05)" stroke="white" stroke-width="3.39772"/>
<rect x="1.71361" y="1.6988" width="177.369" height="49.6042" rx="24.8021" transform="matrix(1 0 0.00868076 0.999962 -0.0147468 6.38927e-05)" stroke="white" stroke-width="3.39772"/>
<rect x="1.71361" y="1.6988" width="176.647" height="48.6741" rx="24.337" transform="matrix(1 0 0.00868076 0.999962 -0.0147468 6.38927e-05)" stroke="url(#paint0_angular_231_374)" stroke-width="3.39772"/>
<path fill-rule="evenodd" clip-rule="evenodd" d="M157.184 38.5455C164.286 38.5455 170.044 32.7212 170.044 25.5364C170.044 18.3517 164.286 12.5273 157.184 12.5273C150.081 12.5273 144.323 18.3517 144.323 25.5364C144.323 32.7212 150.081 38.5455 157.184 38.5455ZM157.184 18.3087C157.973 18.3087 158.613 17.6615 158.613 16.8632C158.613 16.0649 157.973 15.4177 157.184 15.4177C156.395 15.4177 155.755 16.0649 155.755 16.8632C155.755 17.6615 156.395 18.3087 157.184 18.3087ZM167.187 25.5361C167.187 26.3344 166.547 26.9815 165.758 26.9815C164.968 26.9815 164.329 26.3344 164.329 25.5361C164.329 24.7378 164.968 24.0906 165.758 24.0906C166.547 24.0906 167.187 24.7378 167.187 25.5361ZM158.773 26.4429C158.511 26.7714 158.11 26.9815 157.66 26.9815C157.634 26.9815 157.607 26.9808 157.581 26.9793C156.514 27.256 155.117 27.2881 153.808 27.3067C152.548 27.3246 150.868 27.266 149.46 26.9778C149.315 26.9674 149.177 26.9352 149.047 26.8844C147.731 26.5564 146.742 25.9943 146.729 25.0552C146.704 23.263 149.376 23.2512 151.816 23.2404C152.093 23.2392 152.367 23.238 152.634 23.2342C155.252 23.197 159.343 23.1872 159.37 25.1828C159.378 25.7361 159.155 26.143 158.773 26.4429ZM162.9 21.1996C163.689 21.1996 164.329 20.5525 164.329 19.7541C164.329 18.9558 163.689 18.3087 162.9 18.3087C162.111 18.3087 161.471 18.9558 161.471 19.7541C161.471 20.5525 162.111 21.1996 162.9 21.1996ZM152.897 19.7541C152.897 20.5525 152.257 21.1996 151.468 21.1996C150.679 21.1996 150.039 20.5525 150.039 19.7541C150.039 18.9558 150.679 18.3087 151.468 18.3087C152.257 18.3087 152.897 18.9558 152.897 19.7541Z" fill="white"/>
</g>
<defs>
<radialGradient id="paint0_angular_231_374" cx="0" cy="0" r="1" gradientUnits="userSpaceOnUse" gradientTransform="translate(90.0224 26.0359) rotate(90) scale(26.0359 90.0224)">
<stop offset="0.103484" stop-opacity="0"/>
<stop offset="0.335366" stop-color="#D9704F" stop-opacity="0.31"/>
<stop offset="0.430749" stop-color="#D66F4E" stop-opacity="0.306402"/>
<stop offset="0.665877" stop-opacity="0"/>
</radialGradient>
<clipPath id="clip0_231_374">
<rect width="181" height="53" rx="26.5" fill="white"/>
</clipPath>
</defs>
</svg>
