<svg width="27" height="27" viewBox="0 0 27 27" fill="none" xmlns="http://www.w3.org/2000/svg">
<path fill-rule="evenodd" clip-rule="evenodd" d="M13.1838 26.5455C20.2864 26.5455 26.0443 20.7212 26.0443 13.5364C26.0443 6.35171 20.2864 0.527344 13.1838 0.527344C6.0811 0.527344 0.323242 6.35171 0.323242 13.5364C0.323242 20.7212 6.0811 26.5455 13.1838 26.5455ZM13.1839 6.30865C13.9731 6.30865 14.6128 5.6615 14.6128 4.8632C14.6128 4.06489 13.9731 3.41774 13.1839 3.41774C12.3947 3.41774 11.755 4.06489 11.755 4.8632C11.755 5.6615 12.3947 6.30865 13.1839 6.30865ZM23.1866 13.5361C23.1866 14.3344 22.5468 14.9815 21.7577 14.9815C20.9685 14.9815 20.3287 14.3344 20.3287 13.5361C20.3287 12.7378 20.9685 12.0906 21.7577 12.0906C22.5468 12.0906 23.1866 12.7378 23.1866 13.5361ZM14.7731 14.4429C14.5112 14.7714 14.11 14.9815 13.6603 14.9815C13.6336 14.9815 13.607 14.9808 13.5807 14.9793C12.514 15.256 11.1169 15.2881 9.80839 15.3067C8.54844 15.3246 6.86769 15.266 5.46006 14.9778C5.31535 14.9674 5.17661 14.9352 5.04701 14.8844C3.73099 14.5564 2.74226 13.9943 2.72921 13.0552C2.7043 11.263 5.37561 11.2512 7.81647 11.2404C8.09336 11.2392 8.36728 11.238 8.63397 11.2342C11.2516 11.197 15.3427 11.1872 15.3704 13.1828C15.3781 13.7361 15.1552 14.143 14.7731 14.4429ZM18.8998 9.1996C19.689 9.1996 20.3288 8.55245 20.3288 7.75415C20.3288 6.95585 19.689 6.30869 18.8998 6.30869C18.1107 6.30869 17.4709 6.95585 17.4709 7.75415C17.4709 8.55245 18.1107 9.1996 18.8998 9.1996ZM8.89723 7.75415C8.89723 8.55245 8.25747 9.1996 7.46828 9.1996C6.67909 9.1996 6.03933 8.55245 6.03933 7.75415C6.03933 6.95585 6.67909 6.30869 7.46828 6.30869C8.25747 6.30869 8.89723 6.95585 8.89723 7.75415Z" fill="white"/>
</svg>
