<svg width="156" height="23" viewBox="0 0 156 23" fill="none" xmlns="http://www.w3.org/2000/svg">
<mask id="path-1-outside-1_306_272" maskUnits="userSpaceOnUse" x="-1" y="-1" width="158" height="25" fill="black">
<rect fill="white" x="-1" y="-1" width="158" height="25"/>
<path d="M9.368 22.416C7.98133 22.416 6.744 22.2773 5.656 22C4.568 21.744 3.64 21.3387 2.872 20.784C2.12533 20.208 1.54933 19.5147 1.144 18.704C0.738667 17.872 0.525333 16.9013 0.504 15.792L4.088 14.736C4.06667 15.76 4.28 16.6133 4.728 17.296C5.176 17.9573 5.816 18.448 6.648 18.768C7.50133 19.088 8.472 19.248 9.56 19.248C10.6053 19.248 11.48 19.12 12.184 18.864C12.9093 18.608 13.4533 18.2667 13.816 17.84C14.1787 17.392 14.36 16.8907 14.36 16.336C14.36 15.7173 14.136 15.2267 13.688 14.864C13.24 14.48 12.632 14.1707 11.864 13.936C11.1173 13.68 10.264 13.4453 9.304 13.232C8.25867 12.9973 7.23467 12.7413 6.232 12.464C5.25067 12.1867 4.35467 11.8133 3.544 11.344C2.73333 10.8747 2.08267 10.2773 1.592 9.552C1.12267 8.80533 0.888 7.86667 0.888 6.736C0.888 5.456 1.208 4.35733 1.848 3.44C2.488 2.50133 3.416 1.776 4.632 1.264C5.86933 0.730666 7.34133 0.463999 9.048 0.463999C10.7333 0.463999 12.2053 0.719999 13.464 1.232C14.7227 1.72267 15.704 2.448 16.408 3.408C17.112 4.368 17.4853 5.49867 17.528 6.8L13.848 7.824C13.848 7.12 13.7307 6.512 13.496 6C13.2827 5.46667 12.9627 5.02933 12.536 4.688C12.1093 4.32533 11.5973 4.05867 11 3.888C10.424 3.71733 9.76267 3.632 9.016 3.632C8.14133 3.632 7.37333 3.74933 6.712 3.984C6.072 4.21867 5.58133 4.54933 5.24 4.976C4.89867 5.38133 4.728 5.86133 4.728 6.416C4.728 7.09867 4.984 7.64267 5.496 8.048C6.008 8.45333 6.68 8.784 7.512 9.04C8.36533 9.27467 9.29333 9.50933 10.296 9.744C11.2133 9.936 12.1307 10.1707 13.048 10.448C13.9867 10.7253 14.8507 11.088 15.64 11.536C16.4293 11.984 17.0587 12.592 17.528 13.36C18.0187 14.1067 18.264 15.056 18.264 16.208C18.264 17.4453 17.9333 18.5333 17.272 19.472C16.6107 20.4107 15.6187 21.136 14.296 21.648C12.9733 22.16 11.3307 22.416 9.368 22.416ZM23.8148 22V0.879999H27.9108V22H23.8148ZM38.9565 22V0.879999H43.0205V22H38.9565ZM32.6845 4.304V0.879999H49.3245V4.304H32.6845ZM54.0772 22V0.879999H58.1412V22H54.0772ZM56.7012 22V18.672H69.8533V22H56.7012ZM56.7012 12.816V9.744H68.2852V12.816H56.7012ZM56.7012 4.208V0.879999H69.7892V4.208H56.7012ZM84.4335 22V0.879999H90.5455L96.8175 17.488H96.9775L103.154 0.879999H109.01V22H105.17L105.426 4.976H105.106L98.4175 22H94.8975L88.3055 4.976H87.9855L88.2415 22H84.4335ZM113.804 22L121.1 0.879999H127.02L134.316 22H129.9L124.3 4.112H123.852L118.188 22H113.804ZM117.676 17.648V14.8H130.988V17.648H117.676ZM141.727 15.856V12.624H146.687C148.394 12.624 149.663 12.2933 150.495 11.632C151.348 10.9493 151.775 9.82933 151.775 8.272C151.775 6.88533 151.38 5.84 150.591 5.136C149.802 4.432 148.586 4.08 146.943 4.08H141.727V0.879999H147.039C148.404 0.879999 149.631 1.04 150.719 1.36C151.807 1.68 152.735 2.14933 153.503 2.768C154.271 3.38667 154.858 4.176 155.263 5.136C155.668 6.07467 155.871 7.16267 155.871 8.4C155.871 10.0213 155.498 11.3867 154.751 12.496C154.026 13.6053 152.938 14.448 151.487 15.024C150.058 15.5787 148.276 15.856 146.143 15.856H141.727ZM139.071 22V0.879999H143.103V22H139.071Z"/>
</mask>
<path d="M9.368 22.416C7.98133 22.416 6.744 22.2773 5.656 22C4.568 21.744 3.64 21.3387 2.872 20.784C2.12533 20.208 1.54933 19.5147 1.144 18.704C0.738667 17.872 0.525333 16.9013 0.504 15.792L4.088 14.736C4.06667 15.76 4.28 16.6133 4.728 17.296C5.176 17.9573 5.816 18.448 6.648 18.768C7.50133 19.088 8.472 19.248 9.56 19.248C10.6053 19.248 11.48 19.12 12.184 18.864C12.9093 18.608 13.4533 18.2667 13.816 17.84C14.1787 17.392 14.36 16.8907 14.36 16.336C14.36 15.7173 14.136 15.2267 13.688 14.864C13.24 14.48 12.632 14.1707 11.864 13.936C11.1173 13.68 10.264 13.4453 9.304 13.232C8.25867 12.9973 7.23467 12.7413 6.232 12.464C5.25067 12.1867 4.35467 11.8133 3.544 11.344C2.73333 10.8747 2.08267 10.2773 1.592 9.552C1.12267 8.80533 0.888 7.86667 0.888 6.736C0.888 5.456 1.208 4.35733 1.848 3.44C2.488 2.50133 3.416 1.776 4.632 1.264C5.86933 0.730666 7.34133 0.463999 9.048 0.463999C10.7333 0.463999 12.2053 0.719999 13.464 1.232C14.7227 1.72267 15.704 2.448 16.408 3.408C17.112 4.368 17.4853 5.49867 17.528 6.8L13.848 7.824C13.848 7.12 13.7307 6.512 13.496 6C13.2827 5.46667 12.9627 5.02933 12.536 4.688C12.1093 4.32533 11.5973 4.05867 11 3.888C10.424 3.71733 9.76267 3.632 9.016 3.632C8.14133 3.632 7.37333 3.74933 6.712 3.984C6.072 4.21867 5.58133 4.54933 5.24 4.976C4.89867 5.38133 4.728 5.86133 4.728 6.416C4.728 7.09867 4.984 7.64267 5.496 8.048C6.008 8.45333 6.68 8.784 7.512 9.04C8.36533 9.27467 9.29333 9.50933 10.296 9.744C11.2133 9.936 12.1307 10.1707 13.048 10.448C13.9867 10.7253 14.8507 11.088 15.64 11.536C16.4293 11.984 17.0587 12.592 17.528 13.36C18.0187 14.1067 18.264 15.056 18.264 16.208C18.264 17.4453 17.9333 18.5333 17.272 19.472C16.6107 20.4107 15.6187 21.136 14.296 21.648C12.9733 22.16 11.3307 22.416 9.368 22.416ZM23.8148 22V0.879999H27.9108V22H23.8148ZM38.9565 22V0.879999H43.0205V22H38.9565ZM32.6845 4.304V0.879999H49.3245V4.304H32.6845ZM54.0772 22V0.879999H58.1412V22H54.0772ZM56.7012 22V18.672H69.8533V22H56.7012ZM56.7012 12.816V9.744H68.2852V12.816H56.7012ZM56.7012 4.208V0.879999H69.7892V4.208H56.7012ZM84.4335 22V0.879999H90.5455L96.8175 17.488H96.9775L103.154 0.879999H109.01V22H105.17L105.426 4.976H105.106L98.4175 22H94.8975L88.3055 4.976H87.9855L88.2415 22H84.4335ZM113.804 22L121.1 0.879999H127.02L134.316 22H129.9L124.3 4.112H123.852L118.188 22H113.804ZM117.676 17.648V14.8H130.988V17.648H117.676ZM141.727 15.856V12.624H146.687C148.394 12.624 149.663 12.2933 150.495 11.632C151.348 10.9493 151.775 9.82933 151.775 8.272C151.775 6.88533 151.38 5.84 150.591 5.136C149.802 4.432 148.586 4.08 146.943 4.08H141.727V0.879999H147.039C148.404 0.879999 149.631 1.04 150.719 1.36C151.807 1.68 152.735 2.14933 153.503 2.768C154.271 3.38667 154.858 4.176 155.263 5.136C155.668 6.07467 155.871 7.16267 155.871 8.4C155.871 10.0213 155.498 11.3867 154.751 12.496C154.026 13.6053 152.938 14.448 151.487 15.024C150.058 15.5787 148.276 15.856 146.143 15.856H141.727ZM139.071 22V0.879999H143.103V22H139.071Z" fill="white"/>
<path d="M5.656 22L5.903 21.031L5.89404 21.0287L5.88504 21.0266L5.656 22ZM2.872 20.784L2.2612 21.5758L2.2737 21.5854L2.28651 21.5947L2.872 20.784ZM1.144 18.704L0.244962 19.142L0.249573 19.1512L1.144 18.704ZM0.504 15.792L0.22137 14.8328L-0.510485 15.0484L-0.495815 15.8112L0.504 15.792ZM4.088 14.736L5.08778 14.7568L5.11625 13.3905L3.80537 13.7768L4.088 14.736ZM4.728 17.296L3.89195 17.8447L3.89597 17.8508L3.90008 17.8568L4.728 17.296ZM6.648 18.768L6.28901 19.7014L6.29688 19.7043L6.648 18.768ZM12.184 18.864L11.8512 17.921L11.8423 17.9242L12.184 18.864ZM13.816 17.84L14.5779 18.4876L14.5857 18.4785L14.5932 18.4692L13.816 17.84ZM13.688 14.864L13.0372 15.6233L13.0479 15.6324L13.0588 15.6412L13.688 14.864ZM11.864 13.936L11.5397 14.8819L11.5556 14.8874L11.5718 14.8924L11.864 13.936ZM9.304 13.232L9.08496 14.2077L9.08707 14.2082L9.304 13.232ZM6.232 12.464L5.96004 13.4263L5.96541 13.4278L6.232 12.464ZM3.544 11.344L3.04296 12.2094H3.04296L3.544 11.344ZM1.592 9.552L0.745363 10.0842L0.754304 10.0984L0.763717 10.1123L1.592 9.552ZM1.848 3.44L2.66817 4.01221L2.67423 4.00334L1.848 3.44ZM4.632 1.264L5.02007 2.18567L5.02783 2.18232L4.632 1.264ZM13.464 1.232L13.0872 2.15829L13.094 2.16105L13.1008 2.16371L13.464 1.232ZM17.528 6.8L17.7961 7.7634L18.5532 7.55271L18.5275 6.76723L17.528 6.8ZM13.848 7.824H12.848V9.14025L14.1161 8.7874L13.848 7.824ZM13.496 6L12.5675 6.37139L12.5767 6.39426L12.5869 6.41666L13.496 6ZM12.536 4.688L11.8884 5.44994L11.8997 5.45957L11.9113 5.46887L12.536 4.688ZM11 3.888L10.7159 4.84684L10.7253 4.84952L11 3.888ZM6.712 3.984L6.37757 3.04152L6.36775 3.04512L6.712 3.984ZM5.24 4.976L6.00491 5.62014L6.01301 5.61052L6.02087 5.60069L5.24 4.976ZM7.512 9.04L7.21791 9.99578L7.23232 10.0002L7.24684 10.0042L7.512 9.04ZM10.296 9.744L10.0681 10.7177L10.0796 10.7204L10.0911 10.7228L10.296 9.744ZM13.048 10.448L12.7586 11.4052L12.7647 11.407L13.048 10.448ZM15.64 11.536L16.1336 10.6663L15.64 11.536ZM17.528 13.36L16.6747 13.8815L16.6833 13.8955L16.6923 13.9092L17.528 13.36ZM17.272 19.472L16.4545 18.896L17.272 19.472ZM14.296 21.648L13.935 20.7154L14.296 21.648ZM9.368 21.416C8.04598 21.416 6.89401 21.2836 5.903 21.031L5.409 22.969C6.59399 23.2711 7.91669 23.416 9.368 23.416V21.416ZM5.88504 21.0266C4.90271 20.7954 4.10115 20.4382 3.45749 19.9733L2.28651 21.5947C3.17885 22.2391 4.23329 22.6926 5.42696 22.9734L5.88504 21.0266ZM3.4828 19.9922C2.85046 19.5044 2.37363 18.9272 2.03843 18.2568L0.249573 19.1512C0.725033 20.1021 1.4002 20.9116 2.2612 21.5758L3.4828 19.9922ZM2.04299 18.266C1.71267 17.588 1.5229 16.7653 1.50382 15.7728L-0.495815 15.8112C-0.472236 17.0374 -0.235335 18.156 0.24501 19.142L2.04299 18.266ZM0.78663 16.7512L4.37063 15.6952L3.80537 13.7768L0.22137 14.8328L0.78663 16.7512ZM3.08822 14.7152C3.06375 15.8896 3.30781 16.9545 3.89195 17.8447L5.56405 16.7473C5.25219 16.2721 5.06958 15.6304 5.08778 14.7568L3.08822 14.7152ZM3.90008 17.8568C4.47578 18.7067 5.28937 19.3169 6.28902 19.7013L7.00698 17.8347C6.34263 17.5791 5.87622 17.208 5.55592 16.7352L3.90008 17.8568ZM6.29688 19.7043C7.28191 20.0737 8.37475 20.248 9.56 20.248V18.248C8.56925 18.248 7.72075 18.1023 6.99912 17.8317L6.29688 19.7043ZM9.56 20.248C10.6793 20.248 11.6783 20.112 12.5257 19.8038L11.8423 17.9242C11.2817 18.128 10.5314 18.248 9.56 18.248V20.248ZM12.5168 19.807C13.3492 19.5132 14.0659 19.0901 14.5779 18.4876L13.0541 17.1924C12.8408 17.4433 12.4695 17.7028 11.8512 17.921L12.5168 19.807ZM14.5932 18.4692C15.0939 17.8507 15.36 17.1292 15.36 16.336H13.36C13.36 16.6521 13.2634 16.9333 13.0388 17.2108L14.5932 18.4692ZM15.36 16.336C15.36 15.4409 15.0188 14.6547 14.3172 14.0868L13.0588 15.6412C13.2532 15.7986 13.36 15.9937 13.36 16.336H15.36ZM14.3388 14.1047C13.7556 13.6049 13.0113 13.2409 12.1562 12.9796L11.5718 14.8924C12.2527 15.1004 12.7244 15.3551 13.0372 15.6233L14.3388 14.1047ZM12.1883 12.9901C11.3991 12.7195 10.5089 12.4754 9.52093 12.2558L9.08707 14.2082C10.0191 14.4153 10.8355 14.6405 11.5397 14.8819L12.1883 12.9901ZM9.52304 12.2563C8.49318 12.0251 7.48504 11.773 6.49859 11.5002L5.96541 13.4278C6.98429 13.7096 8.02416 13.9696 9.08496 14.2077L9.52304 12.2563ZM6.50396 11.5017C5.59569 11.245 4.77762 10.9027 4.04504 10.4786L3.04296 12.2094C3.93172 12.724 4.90564 13.1283 5.96004 13.4263L6.50396 11.5017ZM4.04504 10.4786C3.35579 10.0795 2.82049 9.5833 2.42028 8.99169L0.763717 10.1123C1.34484 10.9714 2.11087 11.6698 3.04296 12.2094L4.04504 10.4786ZM2.43864 9.01983C2.09417 8.47181 1.888 7.73082 1.888 6.736H-0.112C-0.112 8.00251 0.151166 9.13885 0.745363 10.0842L2.43864 9.01983ZM1.888 6.736C1.888 5.63007 2.16157 4.73825 2.66813 4.01218L1.02787 2.86782C0.254431 3.97642 -0.112 5.28193 -0.112 6.736H1.888ZM2.67423 4.00334C3.18912 3.24816 3.9523 2.63522 5.02006 2.18564L4.24394 0.342364C2.8797 0.916783 1.78688 1.75451 1.02177 2.87666L2.67423 4.00334ZM5.02783 2.18232C6.1116 1.71518 7.44248 1.464 9.048 1.464V-0.536001C7.24019 -0.536001 5.62707 -0.25385 4.23617 0.345676L5.02783 2.18232ZM9.048 1.464C10.6342 1.464 11.9732 1.70513 13.0872 2.15829L13.8408 0.305703C12.4375 -0.265134 10.8325 -0.536001 9.048 -0.536001V1.464ZM13.1008 2.16371C14.2069 2.5949 15.0246 3.21254 15.6016 3.99936L17.2144 2.81664C16.3834 1.68346 15.2384 0.850429 13.8272 0.30029L13.1008 2.16371ZM15.6016 3.99936C16.1753 4.78164 16.4918 5.71309 16.5285 6.83277L18.5275 6.76723C18.4788 5.28424 18.0487 3.95436 17.2144 2.81664L15.6016 3.99936ZM17.2599 5.8366L13.5799 6.8606L14.1161 8.7874L17.7961 7.7634L17.2599 5.8366ZM14.848 7.824C14.848 7.01111 14.7127 6.25448 14.4051 5.58334L12.5869 6.41666C12.7487 6.76952 12.848 7.22889 12.848 7.824H14.848ZM14.4245 5.62861C14.1504 4.94337 13.7293 4.36202 13.1607 3.90713L11.9113 5.46887C12.196 5.69664 12.415 5.98996 12.5675 6.37139L14.4245 5.62861ZM13.1836 3.92606C12.637 3.46138 11.9941 3.132 11.2747 2.92647L10.7253 4.84952C11.2006 4.98533 11.5817 5.18929 11.8884 5.44994L13.1836 3.92606ZM11.2841 2.9292C10.5967 2.72552 9.83655 2.632 9.016 2.632V4.632C9.68879 4.632 10.2513 4.70914 10.7159 4.8468L11.2841 2.9292ZM9.016 2.632C8.05435 2.632 7.16906 2.76073 6.37759 3.04157L7.04641 4.92643C7.57761 4.73794 8.22832 4.632 9.016 4.632V2.632ZM6.36775 3.04512C5.5984 3.32722 4.9397 3.7506 4.45913 4.35131L6.02087 5.60069C6.22297 5.34807 6.5456 5.11012 7.05625 4.92288L6.36775 3.04512ZM4.47509 4.33186C3.9744 4.92643 3.728 5.63758 3.728 6.416H5.728C5.728 6.08508 5.82294 5.83623 6.00491 5.62014L4.47509 4.33186ZM3.728 6.416C3.728 7.38816 4.11138 8.22728 4.8753 8.83204L6.1167 7.26395C5.85662 7.05805 5.728 6.80917 5.728 6.416H3.728ZM4.8753 8.83204C5.51103 9.33534 6.30454 9.71474 7.21791 9.99578L7.80609 8.08422C7.05546 7.85326 6.50497 7.57133 6.1167 7.26395L4.8753 8.83204ZM7.24684 10.0042C8.11434 10.2428 9.05492 10.4806 10.0681 10.7177L10.5239 8.77031C9.53174 8.53811 8.61633 8.30657 7.77716 8.07579L7.24684 10.0042ZM10.0911 10.7228C10.9794 10.9087 11.8685 11.1361 12.7586 11.4052L13.3374 9.49079C12.3928 9.20522 11.4473 8.9633 10.5009 8.76521L10.0911 10.7228ZM12.7647 11.407C13.6357 11.6644 14.4285 11.9982 15.1464 12.4057L16.1336 10.6663C15.2729 10.1778 14.3376 9.78628 13.3313 9.48898L12.7647 11.407ZM15.1464 12.4057C15.7895 12.7707 16.2946 13.2594 16.6747 13.8815L18.3813 12.8385C17.8228 11.9246 17.0691 11.1973 16.1336 10.6663L15.1464 12.4057ZM16.6923 13.9092C17.0487 14.4516 17.264 15.1953 17.264 16.208H19.264C19.264 14.9167 18.9886 13.7618 18.3637 12.8108L16.6923 13.9092ZM17.264 16.208C17.264 17.256 16.9877 18.1392 16.4545 18.896L18.0895 20.048C18.8789 18.9274 19.264 17.6347 19.264 16.208H17.264ZM16.4545 18.896C15.931 19.6391 15.1172 20.2578 13.935 20.7154L14.657 22.5806C16.1202 22.0142 17.2903 21.1823 18.0895 20.048L16.4545 18.896ZM13.935 20.7154C12.7624 21.1693 11.2513 21.416 9.368 21.416V23.416C11.4101 23.416 13.1842 23.1507 14.657 22.5806L13.935 20.7154ZM23.8148 22H22.8148V23H23.8148V22ZM23.8148 0.879999V-0.120001H22.8148V0.879999H23.8148ZM27.9108 0.879999H28.9108V-0.120001H27.9108V0.879999ZM27.9108 22V23H28.9108V22H27.9108ZM24.8148 22V0.879999H22.8148V22H24.8148ZM23.8148 1.88H27.9108V-0.120001H23.8148V1.88ZM26.9108 0.879999V22H28.9108V0.879999H26.9108ZM27.9108 21H23.8148V23H27.9108V21ZM38.9565 22H37.9565V23H38.9565V22ZM38.9565 0.879999V-0.120001H37.9565V0.879999H38.9565ZM43.0205 0.879999H44.0205V-0.120001H43.0205V0.879999ZM43.0205 22V23H44.0205V22H43.0205ZM32.6845 4.304H31.6845V5.304H32.6845V4.304ZM32.6845 0.879999V-0.120001H31.6845V0.879999H32.6845ZM49.3245 0.879999H50.3245V-0.120001H49.3245V0.879999ZM49.3245 4.304V5.304H50.3245V4.304H49.3245ZM39.9565 22V0.879999H37.9565V22H39.9565ZM38.9565 1.88H43.0205V-0.120001H38.9565V1.88ZM42.0205 0.879999V22H44.0205V0.879999H42.0205ZM43.0205 21H38.9565V23H43.0205V21ZM33.6845 4.304V0.879999H31.6845V4.304H33.6845ZM32.6845 1.88H49.3245V-0.120001H32.6845V1.88ZM48.3245 0.879999V4.304H50.3245V0.879999H48.3245ZM49.3245 3.304H32.6845V5.304H49.3245V3.304ZM54.0772 22H53.0772V23H54.0772V22ZM54.0772 0.879999V-0.120001H53.0772V0.879999H54.0772ZM58.1413 0.879999H59.1413V-0.120001H58.1413V0.879999ZM58.1413 22V23H59.1413V22H58.1413ZM56.7012 22H55.7012V23H56.7012V22ZM56.7012 18.672V17.672H55.7012V18.672H56.7012ZM69.8532 18.672H70.8532V17.672H69.8532V18.672ZM69.8532 22V23H70.8532V22H69.8532ZM56.7012 12.816H55.7012V13.816H56.7012V12.816ZM56.7012 9.744V8.744H55.7012V9.744H56.7012ZM68.2852 9.744H69.2852V8.744H68.2852V9.744ZM68.2852 12.816V13.816H69.2852V12.816H68.2852ZM56.7012 4.208H55.7012V5.208H56.7012V4.208ZM56.7012 0.879999V-0.120001H55.7012V0.879999H56.7012ZM69.7892 0.879999H70.7892V-0.120001H69.7892V0.879999ZM69.7892 4.208V5.208H70.7892V4.208H69.7892ZM55.0772 22V0.879999H53.0772V22H55.0772ZM54.0772 1.88H58.1413V-0.120001H54.0772V1.88ZM57.1413 0.879999V22H59.1413V0.879999H57.1413ZM58.1413 21H54.0772V23H58.1413V21ZM57.7012 22V18.672H55.7012V22H57.7012ZM56.7012 19.672H69.8532V17.672H56.7012V19.672ZM68.8532 18.672V22H70.8532V18.672H68.8532ZM69.8532 21H56.7012V23H69.8532V21ZM57.7012 12.816V9.744H55.7012V12.816H57.7012ZM56.7012 10.744H68.2852V8.744H56.7012V10.744ZM67.2852 9.744V12.816H69.2852V9.744H67.2852ZM68.2852 11.816H56.7012V13.816H68.2852V11.816ZM57.7012 4.208V0.879999H55.7012V4.208H57.7012ZM56.7012 1.88H69.7892V-0.120001H56.7012V1.88ZM68.7892 0.879999V4.208H70.7892V0.879999H68.7892ZM69.7892 3.208H56.7012V5.208H69.7892V3.208ZM84.4335 22H83.4335V23H84.4335V22ZM84.4335 0.879999V-0.120001H83.4335V0.879999H84.4335ZM90.5455 0.879999L91.481 0.526704L91.2368 -0.120001H90.5455V0.879999ZM96.8175 17.488L95.882 17.8413L96.1262 18.488H96.8175V17.488ZM96.9775 17.488V18.488H97.6725L97.9148 17.8365L96.9775 17.488ZM103.154 0.879999V-0.120001H102.458L102.216 0.53145L103.154 0.879999ZM109.009 0.879999H110.009V-0.120001H109.009V0.879999ZM109.009 22V23H110.009V22H109.009ZM105.17 22L104.17 21.985L104.154 23H105.17V22ZM105.425 4.976L106.425 4.99104L106.441 3.976H105.425V4.976ZM105.105 4.976V3.976H104.424L104.175 4.61035L105.105 4.976ZM98.4175 22V23H99.099L99.3483 22.3657L98.4175 22ZM94.8975 22L93.965 22.3611L94.2124 23H94.8975V22ZM88.3055 4.976L89.238 4.61491L88.9906 3.976H88.3055V4.976ZM87.9855 4.976V3.976H86.9704L86.9856 4.99104L87.9855 4.976ZM88.2415 22V23H89.2567L89.2414 21.985L88.2415 22ZM85.4335 22V0.879999H83.4335V22H85.4335ZM84.4335 1.88H90.5455V-0.120001H84.4335V1.88ZM89.61 1.23329L95.882 17.8413L97.753 17.1347L91.481 0.526704L89.61 1.23329ZM96.8175 18.488H96.9775V16.488H96.8175V18.488ZM97.9148 17.8365L104.091 1.22855L102.216 0.53145L96.0402 17.1395L97.9148 17.8365ZM103.154 1.88H109.009V-0.120001H103.154V1.88ZM108.009 0.879999V22H110.009V0.879999H108.009ZM109.009 21H105.17V23H109.009V21ZM106.169 22.015L106.425 4.99104L104.426 4.96096L104.17 21.985L106.169 22.015ZM105.425 3.976H105.105V5.976H105.425V3.976ZM104.175 4.61035L97.4867 21.6343L99.3483 22.3657L106.036 5.34165L104.175 4.61035ZM98.4175 21H94.8975V23H98.4175V21ZM95.83 21.6389L89.238 4.61491L87.373 5.33709L93.965 22.3611L95.83 21.6389ZM88.3055 3.976H87.9855V5.976H88.3055V3.976ZM86.9856 4.99104L87.2416 22.015L89.2414 21.985L88.9854 4.96096L86.9856 4.99104ZM88.2415 21H84.4335V23H88.2415V21ZM113.804 22L112.859 21.6735L112.401 23H113.804V22ZM121.1 0.879999V-0.120001H120.387L120.155 0.553479L121.1 0.879999ZM127.02 0.879999L127.965 0.553479L127.733 -0.120001H127.02V0.879999ZM134.316 22V23H135.719L135.261 21.6735L134.316 22ZM129.9 22L128.946 22.2988L129.165 23H129.9V22ZM124.3 4.112L125.254 3.81324L125.035 3.112H124.3V4.112ZM123.852 4.112V3.112H123.12L122.899 3.81013L123.852 4.112ZM118.188 22V23H118.92L119.141 22.3019L118.188 22ZM117.676 17.648H116.676V18.648H117.676V17.648ZM117.676 14.8V13.8H116.676V14.8H117.676ZM130.988 14.8H131.988V13.8H130.988V14.8ZM130.988 17.648V18.648H131.988V17.648H130.988ZM114.749 22.3265L122.045 1.20652L120.155 0.553479L112.859 21.6735L114.749 22.3265ZM121.1 1.88H127.02V-0.120001H121.1V1.88ZM126.075 1.20652L133.371 22.3265L135.261 21.6735L127.965 0.553479L126.075 1.20652ZM134.316 21H129.9V23H134.316V21ZM130.854 21.7012L125.254 3.81324L123.346 4.41076L128.946 22.2988L130.854 21.7012ZM124.3 3.112H123.852V5.112H124.3V3.112ZM122.899 3.81013L117.235 21.6981L119.141 22.3019L124.805 4.41387L122.899 3.81013ZM118.188 21H113.804V23H118.188V21ZM118.676 17.648V14.8H116.676V17.648H118.676ZM117.676 15.8H130.988V13.8H117.676V15.8ZM129.988 14.8V17.648H131.988V14.8H129.988ZM130.988 16.648H117.676V18.648H130.988V16.648ZM141.727 15.856H140.727V16.856H141.727V15.856ZM141.727 12.624V11.624H140.727V12.624H141.727ZM150.495 11.632L151.117 12.4148L151.12 12.4129L150.495 11.632ZM141.727 4.08H140.727V5.08H141.727V4.08ZM141.727 0.879999V-0.120001H140.727V0.879999H141.727ZM153.503 2.768L152.876 3.54675L153.503 2.768ZM155.263 5.136L154.342 5.52499L154.345 5.53244L155.263 5.136ZM154.751 12.496L153.921 11.9376L153.914 11.9487L154.751 12.496ZM151.487 15.024L151.849 15.9563L151.856 15.9534L151.487 15.024ZM139.071 22H138.071V23H139.071V22ZM139.071 0.879999V-0.120001H138.071V0.879999H139.071ZM143.103 0.879999H144.103V-0.120001H143.103V0.879999ZM143.103 22V23H144.103V22H143.103ZM142.727 15.856V12.624H140.727V15.856H142.727ZM141.727 13.624H146.687V11.624H141.727V13.624ZM146.687 13.624C148.492 13.624 150.029 13.2796 151.117 12.4148L149.873 10.8492C149.297 11.3071 148.295 11.624 146.687 11.624V13.624ZM151.12 12.4129C152.299 11.4696 152.775 9.99806 152.775 8.272H150.775C150.775 9.6606 150.398 10.429 149.87 10.8511L151.12 12.4129ZM152.775 8.272C152.775 6.69414 152.32 5.33805 151.257 4.3897L149.925 5.8823C150.441 6.34195 150.775 7.07652 150.775 8.272H152.775ZM151.257 4.3897C150.206 3.45259 148.701 3.08 146.943 3.08V5.08C148.47 5.08 149.397 5.41141 149.925 5.8823L151.257 4.3897ZM146.943 3.08H141.727V5.08H146.943V3.08ZM142.727 4.08V0.879999H140.727V4.08H142.727ZM141.727 1.88H147.039V-0.120001H141.727V1.88ZM147.039 1.88C148.328 1.88 149.457 2.03115 150.437 2.31936L151.001 0.400633C149.805 0.0488529 148.481 -0.120001 147.039 -0.120001V1.88ZM150.437 2.31936C151.418 2.60787 152.224 3.02173 152.876 3.54675L154.13 1.98925C153.246 1.27693 152.196 0.75213 151.001 0.400633L150.437 2.31936ZM152.876 3.54675C153.508 4.05587 153.997 4.70828 154.342 5.52497L156.184 4.74703C155.718 3.64372 155.034 2.71746 154.13 1.98925L152.876 3.54675ZM154.345 5.53244C154.686 6.32253 154.871 7.27099 154.871 8.4H156.871C156.871 7.05434 156.651 5.8268 156.181 4.73956L154.345 5.53244ZM154.871 8.4C154.871 9.8652 154.535 11.0256 153.921 11.9376L155.581 13.0544C156.46 11.7478 156.871 10.1775 156.871 8.4H154.871ZM153.914 11.9487C153.321 12.8565 152.412 13.5808 151.118 14.0946L151.856 15.9534C153.463 15.3152 154.731 14.3542 155.588 13.0432L153.914 11.9487ZM151.125 14.0917C149.847 14.5878 148.198 14.856 146.143 14.856V16.856C148.355 16.856 150.269 16.5695 151.849 15.9563L151.125 14.0917ZM146.143 14.856H141.727V16.856H146.143V14.856ZM140.071 22V0.879999H138.071V22H140.071ZM139.071 1.88H143.103V-0.120001H139.071V1.88ZM142.103 0.879999V22H144.103V0.879999H142.103ZM143.103 21H139.071V23H143.103V21Z" fill="black" mask="url(#path-1-outside-1_306_272)"/>
</svg>
